<svg xmlns="http://www.w3.org/2000/svg" xmlns:xlink="http://www.w3.org/1999/xlink" width="120" height="120" viewBox="0 0 120 120"><defs><clipPath id="b"><rect width="120" height="120"/></clipPath></defs><g id="a" clip-path="url(#b)"><rect width="120" height="120" fill="#fff"/><g transform="translate(-12275 -5555)" fill="none"><path d="M12319,5675v-44h-44v-33h44v-43h33v43h43v33h-43v44Z" stroke="none"/><path d="M 12351.0009765625 5673.99951171875 L 12351.0009765625 5631.0009765625 L 12351.0009765625 5630.0009765625 L 12352.0009765625 5630.0009765625 L 12394.0009765625 5630.0009765625 L 12394.0009765625 5598.99951171875 L 12352.0009765625 5598.99951171875 L 12351.0009765625 5598.99951171875 L 12351.0009765625 5597.99951171875 L 12351.0009765625 5555.99951171875 L 12319.9990234375 5555.99951171875 L 12319.9990234375 5597.99951171875 L 12319.9990234375 5598.99951171875 L 12318.9990234375 5598.99951171875 L 12276.0009765625 5598.99951171875 L 12276.0009765625 5630.0009765625 L 12318.9990234375 5630.0009765625 L 12319.9990234375 5630.0009765625 L 12319.9990234375 5631.0009765625 L 12319.9990234375 5673.99951171875 L 12351.0009765625 5673.99951171875 M 12352.0009765625 5674.99951171875 L 12318.9990234375 5674.99951171875 L 12318.9990234375 5631.0009765625 L 12275.0009765625 5631.0009765625 L 12275.0009765625 5597.99951171875 L 12318.9990234375 5597.99951171875 L 12318.9990234375 5554.99951171875 L 12352.0009765625 5554.99951171875 L 12352.0009765625 5597.99951171875 L 12395.0009765625 5597.99951171875 L 12395.0009765625 5631.0009765625 L 12352.0009765625 5631.0009765625 L 12352.0009765625 5674.99951171875 Z" stroke="none" fill="#6abf4b"/></g></g></svg>